<svg xmlns="http://www.w3.org/2000/svg" xmlns:xlink="http://www.w3.org/1999/xlink" id="bigplay" width="100" height="200" x="0" style="background-color:#ffffff00" y="0" version="1.1" viewBox="0 0 100 200" xml:space="preserve"><g id="dark"><path id="Polygon" fill="#fff" d="M 72.5 49.5 L 38.75 68.9856 L 38.75 30.0144 L 72.5 49.5 Z" opacity=".75"/><path id="Ellipse" fill="none" stroke="#fff" stroke-width="5" d="M 13 50.5 C 13 29.7891 29.7891 13 50.5 13 C 71.2109 13 88 29.7891 88 50.5 C 88 71.2109 71.2109 88 50.5 88 C 29.7891 88 13 71.2109 13 50.5 Z" opacity=".75"/></g><g id="light"><path id="Polygon2" fill="#fff" d="M 72.5 149.5 L 38.75 168.9856 L 38.75 130.0144 L 72.5 149.5 Z" opacity="1"/><path id="Ellipse2" fill="none" stroke="#fff" stroke-width="5" d="M 13 150.5 C 13 129.7891 29.7891 113 50.5 113 C 71.2109 113 88 129.7891 88 150.5 C 88 171.211 71.2109 188 50.5 188 C 29.7891 188 13 171.211 13 150.5 Z" opacity="1"/></g></svg>