<?xml version="1.0" encoding="UTF-8" standalone="no"?>
<!-- Created with Inkscape (http://www.inkscape.org/) -->

<svg
   xmlns:dc="http://purl.org/dc/elements/1.1/"
   xmlns:cc="http://creativecommons.org/ns#"
   xmlns:rdf="http://www.w3.org/1999/02/22-rdf-syntax-ns#"
   xmlns:svg="http://www.w3.org/2000/svg"
   xmlns="http://www.w3.org/2000/svg"
   xmlns:sodipodi="http://sodipodi.sourceforge.net/DTD/sodipodi-0.dtd"
   xmlns:inkscape="http://www.inkscape.org/namespaces/inkscape"
   width="210mm"
   height="297mm"
   viewBox="0 0 210 297"
   version="1.1"
   id="svg3727">
  <defs
     id="defs3721" />
  <sodipodi:namedview
     id="base"
     pagecolor="#ffffff"
     bordercolor="#666666"
     borderopacity="1.0"
     inkscape:pageopacity="0.0"
     inkscape:pageshadow="2"
     inkscape:zoom="0.35"
     inkscape:cx="400"
     inkscape:cy="560"
     inkscape:document-units="mm"
     inkscape:current-layer="layer1"
     showgrid="false" />
  <metadata
     id="metadata3724">
    <rdf:RDF>
      <cc:Work
         rdf:about="">
        <dc:format>image/svg+xml</dc:format>
        <dc:type
           rdf:resource="http://purl.org/dc/dcmitype/StillImage" />
      </cc:Work>
    </rdf:RDF>
  </metadata>
  <g
     inkscape:label="Layer 1"
     inkscape:groupmode="layer"
     id="layer1" />
  <flowRoot
     xml:space="preserve"
     id="flowRoot3742"
     style="fill:black;fill-opacity:1;stroke:none;font-family:sans-serif;font-style:normal;font-weight:normal;font-size:40px;line-height:1.25;letter-spacing:0px;word-spacing:0px"><flowRegion
       id="flowRegion3744"><rect
         id="rect3746"
         width="20"
         height="197.14285"
         x="-1488.5714"
         y="-417.48032" /></flowRegion><flowPara
       id="flowPara3748"></flowPara></flowRoot>  <path
     style="fill:none;stroke:#000000;stroke-width:0.26458332px;stroke-linecap:butt;stroke-linejoin:miter;stroke-opacity:1"
     d="m -452.05951,-33.351189 c 246.44046,16.630951 237.36904,41.5773795 237.36904,68.035711 0,26.458333 53.67261,19.654764 -55.18453,46.869048 -108.85715,27.21428 -142.11905,-14.363094 -157.23809,42.33333 -15.11905,56.69643 -83.15475,65.76786 12.85119,97.51786 96.00596,31.75 96.7619,65.76785 142.11905,16.63095 45.35714,-49.1369 7.55952,-98.27381 80.13095,-85.42262 C -119.44047,165.46428 0,13.517857 -110.36905,183.60714 -220.73809,353.69642 -430.89284,580.48215 -220.73809,352.18452 -10.583333,123.8869 57.452381,67.946428 -6.047619,199.48214 -69.547617,331.01785 -194.27976,375.61903 -47.624999,346.89285 99.02976,318.16667 185.96428,661.36903 100.54167,318.16667 15.119047,-25.035714 101.29762,-62.833331 -65.011905,5.2023808 -231.32142,73.238094 -294.82142,243.32738 -260.80357,83.065476 -226.78571,-77.196428 -234.34524,-142.96428 -132.29166,-48.470237 -30.238094,46.02381 -48.380951,21.077381 -17.386905,70.970237 13.607143,120.86309 3.7797618,143.54167 52.916666,155.6369 c 49.136904,12.09524 43.845239,41.57738 81.642854,20.41072 37.79762,-21.16667 66.52381,-35.52977 79.375,-61.9881 12.85119,-26.458332 52.16072,7.55953 21.16667,-63.499998 C 204.10714,-20.5 518.58333,-64.345237 181.42857,-32.595238 -155.72619,-0.84523809 -544.28572,-56.029761 -155.72619,-0.84523809 232.83333,54.339286 1013.7321,-190.58928 219.22619,91.380952 -575.27975,373.35118 -1092.3512,337.82142 -233.58928,366.54761"
     id="path3754"
     inkscape:connector-curvature="0" />
</svg>
